<?xml version="1.0" encoding="UTF-8" standalone="no"?>
<svg
   width="148"
   height="56"
   version="1.1"
   id="svg1"
   sodipodi:docname="about-wordmark.svg"
   inkscape:version="1.3.2 (091e20e, 2023-11-25, custom)"
   xmlns:inkscape="http://www.inkscape.org/namespaces/inkscape"
   xmlns:sodipodi="http://sodipodi.sourceforge.net/DTD/sodipodi-0.dtd"
   xmlns="http://www.w3.org/2000/svg"
   xmlns:svg="http://www.w3.org/2000/svg">
  <defs
     id="defs1" />
  <sodipodi:namedview
     id="namedview1"
     pagecolor="#505050"
     bordercolor="#ffffff"
     borderopacity="1"
     inkscape:showpageshadow="0"
     inkscape:pageopacity="0"
     inkscape:pagecheckerboard="1"
     inkscape:deskcolor="#505050"
     inkscape:zoom="5.3701893"
     inkscape:cx="78.395746"
     inkscape:cy="9.7761916"
     inkscape:window-width="1920"
     inkscape:window-height="1017"
     inkscape:window-x="-8"
     inkscape:window-y="-8"
     inkscape:window-maximized="1"
     inkscape:current-layer="svg1" />
  <path
     style="font-weight:bold;font-size:49.4377px;font-family:'Meta Pro';-inkscape-font-specification:'Meta Pro Bold';text-align:center;letter-spacing:-1.8818px;word-spacing:0px;text-anchor:middle;stroke-width:0.594936;fill:#ffffff"
     d="M 32.737986,45.016956 31.419177,26.165702 q -0.101447,-1.676797 -0.202894,-3.048721 -0.05072,-1.422736 -0.05072,-2.845472 -0.304341,1.524361 -0.608681,2.693036 -0.253617,1.117865 -0.710129,2.743849 l -5.57958,19.308562 H 18.231078 L 13.209456,26.470574 q -0.355063,-1.321112 -0.760851,-2.997909 -0.405788,-1.625984 -0.659404,-3.04872 0,1.473548 -0.101457,2.947097 -0.05072,1.575171 -0.152171,3.201156 L 10.318215,45.016956 H 3.2676598 L 6.5646843,9.7026121 H 15.644183 L 20.260016,27.38519 q 0.253619,0.965428 0.405788,1.727609 0.202894,0.711367 0.304341,1.371923 0.15217,0.609744 0.253618,1.219489 0.15217,0.609744 0.253616,1.2703 0.456511,-2.642225 1.268087,-5.741757 L 27.51347,9.7026121 h 9.028776 L 39.6871,45.016956 Z m 28.95984,1.321113 q -1.16664,-0.508121 -2.181109,-1.321113 -0.963745,-0.812992 -1.47098,-1.829232 -0.405787,0.406496 -0.811575,0.762179 -0.355064,0.355685 -0.760853,0.609745 -1.978214,1.422736 -5.224514,1.422736 -4.362218,0 -6.644772,-2.083291 -2.282556,-2.134105 -2.282556,-6.046629 0,-4.623894 3.09413,-6.757998 3.144855,-2.184915 9.383839,-2.184915 h 0.760852 q 0.355065,0 0.760852,0.05082 v -1.067055 q 0,-2.184916 -0.608681,-2.997908 -0.557959,-0.863804 -2.434727,-0.863804 -1.62315,0 -3.499918,0.762179 -1.876768,0.762182 -4.007153,2.184917 l -2.891236,-4.877953 q 1.014468,-0.660556 1.927492,-1.117863 0.913021,-0.457308 2.282554,-1.016241 1.927492,-0.812992 3.601366,-1.168676 1.724597,-0.355684 3.499918,-0.355684 3.297024,0 5.427409,1.168676 2.181109,1.168676 2.94196,3.353593 0.152174,0.406496 0.202897,0.812992 0.101406,0.355683 0.15217,0.863803 0.101405,0.508121 0.101405,1.219489 v 1.77842 l -0.152169,8.739665 q 0,1.067052 0.0507,1.880044 0.0507,0.762181 0.30434,1.422737 0.253616,0.660556 0.710125,1.2703 0.507232,0.558932 1.369537,1.219488 z M 55.915353,33.635067 q -3.550642,0 -4.9709,0.812992 -1.369532,0.812992 -1.369532,3.150344 0,1.52436 0.811575,2.489788 0.862299,0.914616 2.181109,0.914616 0.963745,0 1.876768,-0.457307 0.913021,-0.457309 1.673874,-1.321112 l 0.101446,-5.589321 z m 25.662782,-8.688854 q -0.963742,-0.50812 -1.978207,-0.50812 -2.282555,0 -4.159325,2.184917 V 45.016956 H 68.643659 V 27.63925 q 0,-2.642224 -0.30434,-4.573081 -0.253616,-1.930855 -0.659412,-3.048719 l 6.086819,-1.625985 q 0.913018,1.625985 1.065198,3.709276 1.115911,-1.473548 2.637618,-2.591411 1.521697,-1.117865 3.44919,-1.117865 0.760849,0 1.217368,0.101623 0.507233,0.101613 1.318804,0.457308 z m 25.662835,6.605562 q 0,3.963336 -1.21736,7.012055 -1.16663,2.99791 -3.60137,4.928766 -1.3188,1.067052 -2.688343,1.52436 -1.369537,0.508121 -2.992681,0.508121 -1.927493,0 -3.29703,-0.558933 -1.369528,-0.609744 -2.485449,-1.829233 -0.15217,0.711369 -0.253616,1.016241 -0.101406,0.304872 -0.456509,0.863804 h -6.086809 q 0.202893,-0.457308 0.30434,-0.863804 0.152169,-0.406496 0.202892,-0.965428 0.101406,-0.609743 0.101406,-1.473548 0.0507,-0.863805 0.0507,-2.235728 V 15.393556 q 0,-2.438976 -0.101508,-3.861712 -0.101508,-1.422736 -0.355063,-2.5406001 l 6.949226,-1.625984 q 0.15217,1.3211118 0.202893,2.3373522 0.0507,0.9654279 0.0507,2.2865399 v 6.148253 q 0,0.558932 -0.0507,1.270299 0,0.711369 -0.101405,1.016241 1.927493,-2.083292 5.528853,-2.083292 2.384002,0 4.260763,0.914616 1.92751,0.914617 3.24631,2.642224 1.36953,1.727608 2.07966,4.166585 0.71013,2.438976 0.71013,5.487697 z m -7.709966,0.152436 q 0,-1.77842 -0.0507,-2.642225 -0.0507,-0.914617 -0.253616,-1.77842 -0.405786,-1.676797 -1.42026,-2.489789 -0.963742,-0.812992 -2.282556,-0.812992 -1.318804,0 -2.282556,0.711369 -0.913018,0.660556 -1.57242,1.371924 V 38.05571 q 0.710125,0.609746 1.57242,1.168678 0.862305,0.50812 2.231833,0.50812 2.485448,0 3.29703,-2.03248 0.456509,-1.067053 0.608679,-2.337354 0.15217,-1.270299 0.15217,-3.658463 z m 22.061466,13.211121 q -1.82605,0.711369 -4.05788,0.711369 -2.18111,0 -3.80426,-0.965429 -1.62315,-0.965428 -2.23184,-2.591412 -0.20289,-0.50812 -0.30434,-0.965428 -0.1015,-0.457308 -0.20289,-1.067052 -0.0507,-0.609745 -0.10151,-1.52436 0,-0.914617 0,-2.286541 V 16.816293 q 0,-2.591413 -0.1015,-4.319021 -0.0507,-1.727609 -0.25362,-3.5060281 l 6.94911,-1.5751723 q 0.2029,1.0670524 0.25362,2.5405999 0.10151,1.4735485 0.10151,4.2173965 v 20.273991 q 0,1.676796 0,2.693036 0.0507,1.016241 0.0507,1.625984 0.0507,0.609744 0.15217,0.914616 0.10151,0.304873 0.25363,0.558933 0.40578,0.711368 1.36951,0.711368 h 0.35508 q 0.15217,0 0.40578,-0.101624 z m 7.96035,-10.772145 v 0.203247 q 0,3.048721 1.42026,4.674706 1.42025,1.625984 4.05787,1.625984 3.44919,0 6.59405,-2.591414 l 2.63762,4.064961 q -4.41294,3.607653 -9.78963,3.607653 -2.78978,0 -5.07234,-0.965428 -2.28256,-0.965429 -3.90571,-2.693036 -1.57242,-1.77842 -2.43472,-4.268209 -0.8623,-2.489788 -0.8623,-5.538509 0,-3.506027 0.76085,-5.945004 0.76085,-2.438976 2.48546,-4.369833 1.62314,-1.778419 3.60136,-2.642224 1.9782,-0.863804 4.56511,-0.863804 2.28255,0 4.26076,0.711368 1.97822,0.711367 3.24631,2.03248 1.77531,1.829232 2.58689,4.57308 0.86231,2.693037 0.86231,6.808809 v 1.575173 z m 7.96359,-5.284449 q 0,-1.473548 -0.20289,-2.337352 -0.15218,-0.863804 -0.60868,-1.575173 -1.01448,-1.52436 -2.99269,-1.52436 -1.9275,0 -2.99269,1.473549 -1.06518,1.422736 -1.06518,4.166584 v 0.101623 h 7.86213 z"
     id="text1"
     aria-label="Marble" />
</svg>
