<?xml version="1.0" encoding="UTF-8" standalone="no"?>
<svg
   width="148"
   height="56"
   version="1.1"
   id="svg1"
   sodipodi:docname="firefox-wordmark.svg"
   inkscape:version="1.3.2 (091e20e, 2023-11-25, custom)"
   xmlns:inkscape="http://www.inkscape.org/namespaces/inkscape"
   xmlns:sodipodi="http://sodipodi.sourceforge.net/DTD/sodipodi-0.dtd"
   xmlns="http://www.w3.org/2000/svg"
   xmlns:svg="http://www.w3.org/2000/svg">
  <defs
     id="defs1" />
  <sodipodi:namedview
     id="namedview1"
     pagecolor="#505050"
     bordercolor="#ffffff"
     borderopacity="1"
     inkscape:showpageshadow="0"
     inkscape:pageopacity="0"
     inkscape:pagecheckerboard="1"
     inkscape:deskcolor="#505050"
     inkscape:zoom="5.3701893"
     inkscape:cx="75.230123"
     inkscape:cy="11.824537"
     inkscape:window-width="1920"
     inkscape:window-height="1017"
     inkscape:window-x="-8"
     inkscape:window-y="-8"
     inkscape:window-maximized="1"
     inkscape:current-layer="svg1" />
  <path
	 fill="context-fill #20123a"
     style="font-weight:bold;font-size:49.4377px;font-family:'Meta Pro';-inkscape-font-specification:'Meta Pro Bold';text-align:center;letter-spacing:-1.8818px;word-spacing:0px;text-anchor:middle;fill-rule:nonzero;stroke-width:1;stroke-dasharray:none"
     d="m 31.671942,46.758999 -1.35357,-19.610377 q -0.10412,-1.744318 -0.208241,-3.171488 -0.05206,-1.480028 -0.05206,-2.960056 -0.312362,1.585745 -0.624725,2.801481 -0.260301,1.162879 -0.728845,2.85434 l -5.726643,20.0861 H 16.782671 L 11.628693,27.465772 q -0.364422,-1.374311 -0.780905,-3.118631 -0.416484,-1.691461 -0.676784,-3.17149 0,1.532887 -0.104131,3.065774 -0.05206,1.638602 -0.1561818,3.330064 L 8.6612464,46.758999 H 1.4248583 l 3.383925,-36.736418 h 9.3188087 l 4.737495,18.394638 q 0.260303,1.004305 0.416483,1.797178 0.208242,0.740013 0.312362,1.42717 0.156182,0.634297 0.260303,1.268595 0.156181,0.634297 0.260301,1.321454 0.468544,-2.748623 1.30151,-5.972971 l 4.893676,-18.236064 h 9.26675 l 3.227743,36.736418 z m 29.723142,1.374312 q -1.197389,-0.528582 -2.238597,-1.374312 -0.989147,-0.845731 -1.509751,-1.902894 -0.416483,0.422865 -0.832966,0.792872 -0.364422,0.370007 -0.780907,0.634299 -2.030354,1.480027 -5.362218,1.480027 -4.477194,0 -6.81991,-2.167182 -2.342718,-2.220044 -2.342718,-6.290122 0,-4.810093 3.175683,-7.030135 3.227745,-2.272899 9.631171,-2.272899 h 0.780906 q 0.364424,0 0.780906,0.05287 v -1.110023 q 0,-2.272902 -0.624724,-3.118632 -0.572665,-0.898586 -2.498899,-0.898586 -1.665933,0 -3.592167,0.792871 -1.926234,0.792875 -4.11277,2.272901 l -2.967442,-5.074384 q 1.041207,-0.687156 1.978295,-1.162878 0.937086,-0.475724 2.342717,-1.057164 1.978295,-0.84573 3.696288,-1.215736 1.770053,-0.370007 3.592166,-0.370007 3.383925,0 5.570461,1.215738 2.238597,1.215736 3.019502,3.488637 0.156181,0.422865 0.208241,0.84573 0.104121,0.370008 0.156182,0.898589 0.104131,0.528583 0.104131,1.268595 v 1.850036 l -0.156182,9.091603 q 0,1.110021 0.05206,1.955752 0.05206,0.792872 0.312362,1.480028 0.260303,0.687156 0.728846,1.321453 0.520605,0.581441 1.40563,1.268598 z M 55.460201,34.918772 q -3.644227,0 -5.101919,0.845729 -1.40563,0.845732 -1.40563,3.277207 0,1.585744 0.832966,2.590049 0.885027,0.951447 2.238597,0.951447 0.989147,0 1.926235,-0.475723 0.937086,-0.475724 1.717992,-1.374311 l 0.104121,-5.814398 z m 26.339186,-9.038745 q -0.989147,-0.528581 -2.030354,-0.528581 -2.342718,0 -4.268952,2.272901 V 46.758999 H 68.523989 V 28.68151 q 0,-2.748624 -0.312362,-4.757236 -0.260302,-2.008608 -0.676785,-3.171488 l 6.247246,-1.691462 q 0.937087,1.691462 1.093269,3.858645 1.145327,-1.532885 2.70714,-2.695764 1.561811,-1.162881 3.540105,-1.162881 0.780907,0 1.249449,0.105717 0.520605,0.105706 1.353571,0.475723 z m 26.339233,6.871561 q 0,4.122936 -1.24944,7.294424 -1.19739,3.118631 -3.6963,5.127243 -1.35356,1.110021 -2.7592,1.585744 -1.405628,0.528581 -3.071559,0.528581 -1.978295,0 -3.383926,-0.581439 -1.40563,-0.634299 -2.550958,-1.902894 -0.156182,0.740014 -0.260302,1.057162 -0.104121,0.31715 -0.468544,0.89859 h -6.247245 q 0.208241,-0.475723 0.312362,-0.89859 0.15618,-0.422864 0.208242,-1.004304 0.10412,-0.634298 0.10412,-1.532885 0.05206,-0.89859 0.05206,-2.32576 V 15.942694 q 0,-2.537191 -0.104131,-4.017219 -0.104131,-1.480029 -0.364422,-2.6429085 L 91.79165,7.5911058 q 0.156181,1.3743118 0.208242,2.4314752 0.05206,1.004306 0.05206,2.378618 v 6.395836 q 0,0.581439 -0.05206,1.321453 0,0.740015 -0.10412,1.057163 1.978294,-2.167184 5.674582,-2.167184 2.446836,0 4.373066,0.951448 1.9783,0.951446 3.33187,2.748623 1.40562,1.797178 2.13448,4.33437 0.72884,2.537191 0.72884,5.70868 z m -7.91318,0.158574 q 0,-1.850035 -0.0521,-2.748625 -0.0521,-0.951447 -0.260302,-1.850034 -0.416483,-1.74432 -1.45769,-2.590051 -0.989148,-0.845729 -2.342718,-0.845729 -1.35357,0 -2.342717,0.740013 -0.937087,0.687156 -1.613872,1.427172 v 12.474523 q 0.728845,0.634298 1.613872,1.215739 0.885026,0.528581 2.290657,0.528581 2.550959,0 3.383926,-2.114327 0.468542,-1.11002 0.624724,-2.431475 0.15618,-1.321455 0.15618,-3.805787 z m 22.64295,13.74312 q -1.87418,0.740015 -4.16484,0.740015 -2.2386,0 -3.90453,-1.004307 -1.66593,-1.004304 -2.29066,-2.695765 -0.20824,-0.528582 -0.31236,-1.004305 -0.10418,-0.475722 -0.20824,-1.11002 -0.052,-0.634299 -0.10418,-1.585745 0,-0.951447 0,-2.378618 V 17.422722 q 0,-2.695765 -0.10419,-4.492943 -0.052,-1.797177 -0.2603,-3.6472125 l 7.13228,-1.6386028 q 0.20824,1.1100215 0.2603,2.6429083 0.10418,1.532887 0.10418,4.387227 v 21.090402 q 0,1.744321 0,2.801484 0.052,1.057163 0.052,1.691461 0.052,0.634297 0.15618,0.951447 0.10418,0.317148 0.26031,0.58144 0.41648,0.740012 1.40561,0.740012 h 0.36444 q 0.15618,0 0.41648,-0.105714 z m 8.17016,-11.205928 v 0.211432 q 0,3.171489 1.45769,4.862951 1.45769,1.691461 4.16483,1.691461 3.5401,0 6.76785,-2.695767 l 2.70714,4.228653 q -4.52926,3.752929 -10.04765,3.752929 -2.86332,0 -5.20604,-1.004304 -2.34272,-1.004307 -4.00865,-2.801484 -1.61387,-1.850035 -2.4989,-4.440085 -0.88502,-2.590049 -0.88502,-5.761538 0,-3.647212 0.7809,-6.184406 0.7809,-2.53719 2.55097,-4.545801 1.66592,-1.850034 3.69628,-2.748624 2.03034,-0.898587 4.68543,-0.898587 2.34272,0 4.37307,0.740014 2.03035,0.740013 3.33187,2.114327 1.8221,1.902893 2.65508,4.757233 0.88503,2.801481 0.88503,7.082993 v 1.638603 z m 8.17349,-5.497248 q 0,-1.532887 -0.20824,-2.431477 -0.15619,-0.898587 -0.62473,-1.638602 -1.04121,-1.585745 -3.07157,-1.585745 -1.97829,0 -3.07156,1.532886 -1.09326,1.480028 -1.09326,4.334369 v 0.105715 h 8.06936 z"
     id="text1"
     aria-label="Marble"
     inkscape:label="path1" />
</svg>
